HIERARCHY
ROOT base
{
	OFFSET 0.000000 0.000000 0.000000
	CHANNELS 6 Xposition Yposition Zposition Xrotation Yrotation Zrotation
	JOINT torso
	{
		OFFSET 0.000000 0.000000 0.522674
		CHANNELS 3 Xrotation Yrotation Zrotation
		JOINT head
		{
			OFFSET 0.000000 0.000000 0.302405
			CHANNELS 3 Xrotation Yrotation Zrotation
			End Site
			{
				OFFSET 0.000000 0.000000 0.195674
			}
		}
		JOINT arm.upper.left
		{
			OFFSET 0.123316 0.000000 0.245458
			CHANNELS 6 Xposition Yposition Zposition Xrotation Yrotation Zrotation
			JOINT arm.lower.left
			{
				OFFSET 0.010098 0.000000 -0.198052
				CHANNELS 3 Xrotation Yrotation Zrotation
				End Site
				{
					OFFSET 0.004139 0.000000 -0.183228
				}
			}
		}
		JOINT arm.upper.right
		{
			OFFSET -0.123316 0.000000 0.245458
			CHANNELS 6 Xposition Yposition Zposition Xrotation Yrotation Zrotation
			JOINT arm.lower.right
			{
				OFFSET -0.010098 0.000000 -0.198052
				CHANNELS 3 Xrotation Yrotation Zrotation
				End Site
				{
					OFFSET -0.004139 0.000000 -0.183228
				}
			}
		}
	}
	JOINT leg.upper.left
	{
		OFFSET 0.061056 0.000000 0.482372
		CHANNELS 6 Xposition Yposition Zposition Xrotation Yrotation Zrotation
		JOINT leg.lower.left
		{
			OFFSET 0.008277 0.000000 -0.229460
			CHANNELS 3 Xrotation Yrotation Zrotation
			End Site
			{
				OFFSET 0.002935 0.000000 -0.252034
			}
		}
	}
	JOINT leg.upper.right
	{
		OFFSET -0.061056 0.000000 0.482372
		CHANNELS 6 Xposition Yposition Zposition Xrotation Yrotation Zrotation
		JOINT leg.lower.right
		{
			OFFSET -0.008277 0.000000 -0.229460
			CHANNELS 3 Xrotation Yrotation Zrotation
			End Site
			{
				OFFSET -0.002935 0.000000 -0.252034
			}
		}
	}
}
MOTION
Frames: 20
Frame Time: 0.041667
-0.000000 0.000000 -0.001445 -0.000000 0.000000 -0.000000 -0.000000 0.000000 -0.000000 -0.000000 0.000000 -0.000000 0.123316 0.000000 0.245458 9.586978 -0.711036 0.630280 0.322949 1.815264 0.059705 -0.123316 -0.000000 0.245458 -9.825902 0.802023 0.636102 -0.340886 -1.757391 0.064688 0.061056 0.000000 0.482371 -14.133439 0.385187 -0.425488 2.056599 -0.718802 -0.068889 -0.061056 0.000000 0.482372 15.897071 -0.480912 -0.453869 0.314829 0.778815 0.035518 
-0.000000 -0.000000 -0.001245 -0.000000 0.000000 -0.000000 -0.000000 0.000000 -0.000000 -0.000000 0.000000 -0.000000 0.123316 0.000000 0.245458 8.910059 -0.721406 0.587019 0.299712 1.813212 0.055362 -0.123316 0.000000 0.245458 -9.148901 0.806097 0.591802 -0.317644 -1.759392 0.060322 0.061056 0.000000 0.482372 -13.091863 0.380791 -0.394768 1.995622 -0.720886 -0.067690 -0.061056 0.000000 0.482372 12.456072 -0.440802 -0.353232 6.733154 0.742645 0.015538 
-0.000000 0.000000 -0.000722 -0.000000 0.000000 -0.000000 -0.000000 0.000000 -0.000000 -0.000000 0.000000 -0.000000 0.123316 0.000000 0.245458 6.873721 -0.749507 0.456184 0.229909 1.807064 0.042311 -0.123316 0.000000 0.245458 -7.112357 0.815198 0.458290 -0.247836 -1.765415 0.047213 0.061056 0.000000 0.482371 -9.951935 0.370792 -0.301762 1.812473 -0.727152 -0.064102 -0.061056 0.000000 0.482372 3.217763 -0.366470 -0.074057 23.843236 0.642904 -0.016561 
-0.000000 -0.000000 -0.000200 -0.000000 0.000000 -0.000000 -0.000000 0.000000 -0.000000 -0.000000 0.000000 -0.000000 0.123316 0.000000 0.245458 4.121354 -0.780062 0.277922 0.135791 1.798800 0.024701 -0.123316 0.000000 0.245458 -4.359785 0.819952 0.277489 -0.153708 -1.773562 0.029549 0.061056 0.000000 0.482372 -5.694056 0.365319 -0.175051 1.565515 -0.735620 -0.059295 -0.061056 0.000000 0.482372 -6.517622 -0.342232 0.226003 40.897424 0.541692 -0.018242 
0.000000 0.000000 -0.000000 -0.000000 0.000000 -0.000000 -0.000000 0.000000 -0.000000 -0.000000 0.000000 -0.000000 0.123316 0.000000 0.245458 1.642176 -0.800228 0.116266 0.051164 1.791394 0.008856 -0.123316 0.000000 0.245458 -1.880510 0.816799 0.114609 -0.069076 -1.780911 0.013677 0.061056 0.000000 0.482371 -1.849650 0.368470 -0.060578 1.343456 -0.743251 -0.055006 -0.061056 0.000000 0.482371 -11.202990 -0.355639 0.365074 47.265380 0.504183 -0.011125 
-0.000000 0.000000 -0.000222 -0.000000 0.000000 -0.000000 -0.000000 0.000000 -0.000000 -0.000000 0.000000 -0.000000 0.123316 0.000000 0.245458 -0.917260 -0.813691 -0.051374 -0.036150 1.783777 -0.007503 -0.123316 0.000000 0.245458 0.678949 0.806164 -0.053233 0.018238 -1.788519 -0.002685 0.061056 0.000000 0.482371 2.122600 0.379751 0.057204 1.114391 -0.751139 -0.050609 -0.061056 0.000000 0.482371 -12.527042 -0.368762 0.396851 43.380840 0.523156 -0.009272 
-0.000000 0.000000 -0.000847 -0.000000 0.000000 -0.000000 -0.000000 0.000000 -0.000000 -0.000000 0.000000 -0.000000 0.123316 0.000000 0.245458 -4.076535 -0.819963 -0.258863 -0.143981 1.774406 -0.027721 -0.123316 0.000000 0.245458 3.838234 0.782729 -0.259495 0.126066 -1.797949 -0.022878 0.061056 0.000000 0.482371 7.022230 0.404803 0.200959 0.831558 -0.760902 -0.045223 -0.061056 0.000000 0.482372 -13.455560 -0.378317 0.416727 32.213146 0.576941 0.002332 
-0.000000 0.000000 -0.001650 -0.000000 0.000000 -0.000000 -0.000000 0.000000 -0.000000 -0.000000 0.000000 -0.000000 0.123316 -0.000000 0.245458 -7.112083 -0.815208 -0.458265 -0.247793 1.765419 -0.047202 -0.123316 0.000000 0.245458 6.873770 0.749536 -0.456181 0.229867 -1.807062 -0.042300 0.061056 0.000000 0.482372 11.717207 0.440180 0.336229 0.559223 -0.770329 -0.040085 -0.061056 0.000000 0.482372 -13.947078 -0.383393 0.424951 17.628360 0.643979 0.030801 
-0.000000 0.000000 -0.002275 -0.000000 0.000000 -0.000000 -0.000000 0.000000 -0.000000 -0.000000 0.000000 -0.000000 0.123316 -0.000000 0.245458 -9.155178 -0.806063 -0.592210 -0.317847 1.759374 -0.060357 -0.123316 0.000000 0.245458 8.916687 0.721338 -0.587443 0.299914 -1.813231 -0.055398 0.061056 0.000000 0.482372 14.865852 0.470059 0.425126 0.375342 -0.776711 -0.036645 -0.061056 0.000000 0.482371 -14.111932 -0.385013 0.426014 6.264123 0.694301 0.060923 
-0.000000 0.000000 -0.002497 -0.000000 0.000000 -0.000000 -0.000000 0.000000 -0.000000 -0.000000 0.000000 -0.000000 0.123316 0.000000 0.245458 -9.825901 -0.802021 -0.636101 -0.340885 1.757390 -0.064685 -0.123316 -0.000000 0.245458 9.586980 0.711038 -0.630279 0.322947 -1.815265 -0.059703 0.061056 -0.000000 0.482372 15.897071 0.480914 0.453868 0.314829 -0.778814 -0.035518 -0.061056 0.000000 0.482371 -14.133442 -0.385186 0.425486 2.056599 0.718803 0.068888 
-0.000000 0.000000 -0.002275 -0.000000 0.000000 -0.000000 -0.000000 0.000000 -0.000000 -0.000000 0.000000 -0.000000 0.123316 -0.000000 0.245458 -9.432011 -0.804454 -0.610332 -0.327439 1.758548 -0.062160 -0.123316 0.000000 0.245458 9.192831 0.717108 -0.605102 0.309501 -1.814077 -0.057190 0.061056 0.000000 0.482372 13.600224 0.453310 0.386780 4.521850 -0.756187 -0.017983 -0.061056 -0.000000 0.482372 -13.523161 -0.382541 0.407496 1.759271 0.728978 0.063067 
-0.000000 0.000000 -0.001650 -0.000000 0.000000 -0.000000 -0.000000 0.000000 -0.000000 -0.000000 0.000000 -0.000000 0.123316 0.000000 0.245458 -8.186328 -0.810982 -0.528736 -0.284881 1.762216 -0.054166 -0.123316 0.000000 0.245458 7.947385 0.735241 -0.525287 0.266953 -1.810326 -0.049235 0.061056 0.000000 0.482371 7.011978 0.390277 0.189377 16.622768 -0.685210 0.022600 -0.061056 0.000000 0.482372 -11.594700 -0.375402 0.350488 1.599377 0.734459 0.059955 
-0.000000 0.000000 -0.000847 -0.000000 0.000000 -0.000000 -0.000000 0.000000 -0.000000 -0.000000 0.000000 -0.000000 0.123316 -0.000000 0.245458 -6.220704 -0.817676 -0.399748 -0.217660 1.768023 -0.041546 -0.123316 0.000000 0.245458 5.982157 0.760331 -0.398600 0.199738 -1.804412 -0.036665 0.061056 0.000000 0.482372 -1.691301 0.344821 -0.078568 32.371712 -0.583556 0.051616 -0.061056 -0.000000 0.482371 -8.554524 -0.367997 0.260222 1.534006 0.736702 0.058685 
-0.000000 0.000000 -0.000222 -0.000000 0.000000 -0.000000 -0.000000 0.000000 -0.000000 -0.000000 0.000000 -0.000000 0.123316 0.000000 0.245458 -3.976044 -0.819913 -0.252271 -0.140832 1.774679 -0.027131 -0.123316 0.000000 0.245458 3.737701 0.783645 -0.252964 0.122914 -1.797672 -0.022288 0.061056 0.000000 0.482372 -8.835648 0.342412 -0.298574 44.461885 -0.502488 0.054487 -0.061056 0.000000 0.482372 -5.085933 -0.365359 0.156929 1.472747 0.738806 0.057500 
0.000000 0.000000 0.000000 -0.000000 0.000000 -0.000000 -0.000000 0.000000 -0.000000 -0.000000 0.000000 -0.000000 0.123316 0.000000 0.245458 -1.880510 -0.816797 -0.114609 -0.069075 1.780911 -0.013675 -0.123316 0.000000 0.245458 1.642176 0.800230 -0.116265 0.051163 -1.791394 -0.008853 0.061056 0.000000 0.482372 -12.059213 0.357482 -0.392142 48.662895 -0.474371 0.051471 -0.061056 0.000000 0.482371 -1.849650 -0.368468 0.060577 1.343456 0.743251 0.055005 
-0.000000 0.000222 -0.000222 -0.000000 0.000000 -0.000000 -0.000000 0.000000 -0.000000 -0.000000 0.000000 -0.000000 0.123316 0.000000 0.245458 0.528375 -0.806999 0.043375 0.013367 1.788093 0.001776 -0.123316 0.000000 0.245458 -0.766674 0.813096 0.041497 -0.031278 -1.784203 0.006593 0.061056 0.000000 0.482372 -12.995572 0.370214 -0.412218 44.609441 -0.498408 0.049337 -0.061056 0.000000 0.482372 1.871918 -0.378715 -0.049799 1.127145 0.750701 0.050854 
-0.000000 0.000847 -0.000847 -0.000000 0.000000 -0.000000 -0.000000 0.000000 -0.000000 -0.000000 0.000000 -0.000000 0.123316 0.000000 0.245458 3.656106 -0.784380 0.247645 0.120295 1.797442 0.021801 -0.123316 0.000000 0.245458 -3.894398 0.819898 0.246898 -0.138211 -1.774907 0.026643 0.061056 0.000000 0.482371 -13.652891 0.379145 -0.423649 32.968176 -0.565366 0.033833 -0.061056 0.000000 0.482371 6.710741 -0.402684 -0.191895 0.846581 0.760386 0.045512 
-0.000000 0.001650 -0.001650 -0.000000 0.000000 -0.000000 -0.000000 0.000000 -0.000000 -0.000000 0.000000 -0.000000 0.123316 0.000000 0.245458 6.754626 -0.751009 0.448498 0.226162 1.806734 0.041610 -0.123316 0.000000 0.245458 -6.993111 0.815582 0.450460 -0.244086 -1.765740 0.046509 0.061056 0.000000 0.482372 -14.001159 0.383711 -0.427114 17.811308 -0.646103 -0.006009 -0.061056 0.000000 0.482372 11.509532 -0.438221 -0.330322 0.568795 0.770002 0.040270 
-0.000000 0.002275 -0.002275 -0.000000 0.000000 -0.000000 -0.000000 0.000000 -0.000000 -0.000000 0.000000 -0.000000 0.123316 0.000000 0.245458 8.880900 -0.721842 0.585152 0.298817 1.813134 0.055195 -0.123316 -0.000000 0.245458 -9.119682 0.806260 0.589888 -0.316749 -1.759469 0.060154 0.061056 0.000000 0.482372 -14.118119 0.385076 -0.426347 6.131684 -0.701230 -0.050660 -0.061056 0.000000 0.482371 14.803289 -0.469354 -0.423384 0.378144 0.776616 0.036699 
-0.000000 0.002497 -0.002497 -0.000000 0.000000 -0.000000 -0.000000 0.000000 -0.000000 -0.000000 0.000000 -0.000000 0.123316 0.000000 0.245458 9.586978 -0.711036 0.630280 0.322949 1.815264 0.059705 -0.123316 -0.000000 0.245458 -9.825902 0.802023 0.636102 -0.340886 -1.757391 0.064688 0.061056 0.000000 0.482371 -14.133439 0.385187 -0.425488 2.056599 -0.718802 -0.068889 -0.061056 0.000000 0.482372 15.897071 -0.480912 -0.453869 0.314829 0.778815 0.035518 
